<?xml version="1.0" encoding="UTF-8"?>
<svg width="151px" height="152px" viewBox="0 0 151 152" version="1.1"
  xmlns="http://www.w3.org/2000/svg" xmlns:xlink="http://www.w3.org/1999/xlink">
  <g id="Page-1" stroke="none" stroke-width="1" fill="none" fill-rule="evenodd">
    <g id="Artboard" transform="translate(-1164.000000, -438.000000)">
      <g id="Group-2" transform="translate(1164.219408, 438.780592)">
        <circle id="Oval" fill="#000000"
          transform="translate(75.000000, 75.438815) rotate(-90.000000) translate(-75.000000, -75.438815) "
          cx="75" cy="75.4388151" r="75"></circle>
        <path
          d="M84,9 C125.421356,9 159,38.5492065 159,75 C159,111.450793 125.421356,141 84,141 C42.5786438,141 9,111.450793 9,75 C9,38.5492065 42.5786438,9 84,9 Z M84,17 C46.7855052,17 17,43.2112445 17,75 C17,106.788755 46.7855052,133 84,133 C121.214495,133 151,106.788755 151,75 C151,43.2112445 121.214495,17 84,17 Z"
          id="Oval" fill="#FF8A00" fill-rule="nonzero"
          transform="translate(84.000000, 75.000000) rotate(-90.000000) translate(-84.000000, -75.000000) "></path>
        <path
          d="M100.780592,26.2194075 C136.126816,26.2194075 164.780592,48.3813124 164.780592,75.7194075 C164.780592,103.057503 136.126816,125.219408 100.780592,125.219408 C65.4343685,125.219408 36.7805925,103.057503 36.7805925,75.7194075 C36.7805925,48.3813124 65.4343685,26.2194075 100.780592,26.2194075 Z M100.780592,34.7194075 C70.2427424,34.7194075 46.2805925,53.4428345 46.2805925,75.2194075 C46.2805925,96.9959806 70.2427424,115.719408 100.780592,115.719408 C131.318442,115.719408 155.280592,96.9959806 155.280592,75.2194075 C155.280592,53.4428345 131.318442,34.7194075 100.780592,34.7194075 Z"
          id="Oval" fill="#FF8A00" fill-rule="nonzero"
          transform="translate(100.780592, 75.719408) rotate(-90.000000) translate(-100.780592, -75.719408) "></path>
        <path
          d="M117.280592,42.2194075 C147.380111,42.2194075 171.780592,56.9940108 171.780592,75.2194075 C171.780592,93.4448043 147.380111,108.219408 117.280592,108.219408 C87.1810736,108.219408 62.7805925,93.4448043 62.7805925,75.2194075 C62.7805925,56.9940108 87.1810736,42.2194075 117.280592,42.2194075 Z M117.280592,52.2194075 C91.9761817,52.2194075 72.7805925,63.8840036 72.7805925,75.2194075 C72.7805925,86.5548114 91.9761817,98.2194075 117.280592,98.2194075 C142.585003,98.2194075 161.780592,86.5548114 161.780592,75.2194075 C161.780592,63.8840036 142.585003,52.2194075 117.280592,52.2194075 Z"
          id="Oval" fill="#FF8A00" fill-rule="nonzero"
          transform="translate(117.280592, 75.219408) rotate(-90.000000) translate(-117.280592, -75.219408) "></path>
        <path
          d="M134.5,59.8197674 C151.620827,59.8197674 165.5,66.7593538 165.5,75.3197674 C165.5,81.0552446 159.269639,86.0631323 150.00829,88.7437448 L149.170898,88.9775358 C148.889123,89.0533641 148.604733,89.127076 148.317812,89.198629 L147.449542,89.406769 C143.50893,90.3138716 139.122623,90.8197674 134.5,90.8197674 C117.379173,90.8197674 103.5,83.8801811 103.5,75.3197674 C103.5,69.6698945 109.545768,64.7260538 118.579059,62.0173675 L119.408412,61.7773233 C123.874616,60.5303811 129.021335,59.8197674 134.5,59.8197674 Z M134.5,67.8197674 C127.351232,67.8197674 120.760117,69.2136706 116.157399,71.5150299 C114.241986,72.4727362 112.844001,73.5073813 112.043902,74.4532043 L111.94086,74.5776557 L111.773475,74.7948851 C111.630283,74.9917056 111.55647,75.1287126 111.52317,75.2186265 L111.502307,75.2933138 C111.500725,75.3033024 111.5,75.3121007 111.5,75.3197674 C111.5,75.3887685 111.558688,75.5494191 111.773475,75.8446498 L111.94086,76.0618792 C111.972969,76.1015641 112.007271,76.1430282 112.043902,76.1863305 C112.844001,77.1321536 114.241986,78.1667987 116.157399,79.124505 C120.760117,81.4258643 127.351232,82.8197674 134.5,82.8197674 C141.648768,82.8197674 148.239883,81.4258643 152.842601,79.124505 C154.758014,78.1667987 156.155999,77.1321536 156.956098,76.1863305 C157.06599,76.0564236 157.15493,75.94306 157.226525,75.8446498 L157.34766,75.667296 C157.464497,75.4825447 157.5,75.373435 157.5,75.3197674 L157.497693,75.2933138 L157.47683,75.2186265 C157.426881,75.0837557 157.285774,74.8429252 156.956098,74.4532043 C156.155999,73.5073813 154.758014,72.4727362 152.842601,71.5150299 C148.239883,69.2136706 141.648768,67.8197674 134.5,67.8197674 Z"
          id="Oval" fill="#FF8A00" fill-rule="nonzero"
          transform="translate(134.500000, 75.319767) rotate(-90.000000) translate(-134.500000, -75.319767) "></path>
      </g>
    </g>
  </g>
</svg>
